<svg width="131" height="41" viewBox="0 0 131 41" fill="none" xmlns="http://www.w3.org/2000/svg">
<path d="M9.704 33V24.504H15.896C23.576 24.504 28.52 20.328 28.52 12.696C28.52 5.304 23.576 0.839999 15.896 0.839999H0.68V33H9.704ZM15.56 8.952C18.632 8.952 19.496 9.528 19.496 12.696C19.496 15.864 18.632 16.44 15.56 16.44H9.704V8.952H15.56ZM41.7849 33.48C49.1289 33.48 53.7369 29.928 53.7369 24.936V24.36H44.8089V24.456C44.8089 25.56 44.0889 25.992 41.9289 25.992C38.6169 25.992 37.8009 25.368 37.6569 22.728H53.6409C53.7849 21.912 54.0249 20.424 54.0249 19.08C54.0249 12.504 50.0409 7.848 42.0729 7.848C33.8649 7.848 29.2569 12.744 29.2569 20.904C29.2569 28.776 33.7689 33.48 41.7849 33.48ZM41.5929 14.952C44.5689 14.952 45.3849 16.248 45.4329 17.832H37.6569C37.8009 15.816 38.8089 14.952 41.5929 14.952ZM65.0098 33V17.4C65.0098 15.624 65.7778 15.432 67.2657 15.432C68.9458 15.432 69.2818 15.96 69.2818 17.784V20.232H78.3058V15.768C78.3058 10.92 76.6258 7.848 71.8738 7.848C68.6098 7.848 66.2578 9.672 64.8658 12.072H64.4338V8.328H56.0338V33H65.0098ZM89.3491 33.48C92.9011 33.48 95.3011 31.992 96.3571 29.736H96.7891V40.68H105.765V8.328H97.3651V11.688H97.0771C95.7331 9.384 93.1411 7.848 89.1571 7.848C82.9171 7.848 79.4131 12.888 79.4131 20.664C79.4131 28.44 82.8211 33.48 89.3491 33.48ZM88.3891 20.664C88.3891 17.352 88.8691 15.72 92.6131 15.72C95.4451 15.72 96.7891 16.392 96.7891 19.8V21.576C96.7891 24.936 95.4451 25.656 92.6131 25.656C88.8211 25.656 88.3891 23.976 88.3891 20.664ZM119.814 33.48C127.062 33.48 130.902 30.168 130.902 25.512C130.902 21.528 129.03 19.368 123.51 18.216L117.99 17.064C116.406 16.728 116.166 16.392 116.166 15.768C116.166 15.048 116.454 14.616 118.614 14.616C120.918 14.616 121.542 15.048 121.542 16.536V16.968H129.99V16.056C129.99 10.632 125.19 7.848 118.854 7.848C111.558 7.848 107.862 11.208 107.862 15.768C107.862 20.568 110.646 22.488 115.542 23.4L120.246 24.264C122.31 24.648 122.55 24.888 122.55 25.656C122.55 26.568 122.31 26.808 119.814 26.808C116.79 26.808 116.358 26.472 116.358 25.128V24.504H107.958V24.648C107.958 30.264 111.654 33.48 119.814 33.48Z" fill="black"/>
</svg>
